<svg width="292" height="64" viewBox="0 0 292 64" fill="none" xmlns="http://www.w3.org/2000/svg">
<rect width="292" height="64" rx="9" fill="url(#paint0_linear_3192_7470)"/>
<path d="M39.874 35.0019C40.0981 35.0582 45.3749 36.4674 45.3749 44.2186C45.3749 44.5253 45.2531 44.8194 45.0362 45.0362C44.8194 45.253 44.5253 45.3749 44.2186 45.3749C36.4674 45.3749 35.0583 40.098 35.0019 39.874C34.9275 39.5764 34.9744 39.2614 35.1323 38.9983C35.2902 38.7352 35.5461 38.5457 35.8438 38.4713C36.1414 38.397 36.4564 38.4439 36.7195 38.6018C36.9825 38.7597 37.1721 39.0156 37.2465 39.3132C37.2826 39.4433 38.1917 42.5536 43.0075 43.0074C42.5536 38.1917 39.4491 37.2811 39.3046 37.2435C39.0073 37.1669 38.7527 36.9753 38.5967 36.7108C38.4407 36.4464 38.3961 36.1309 38.4728 35.8336C38.5495 35.5364 38.7411 35.2817 39.0055 35.1257C39.2699 34.9698 39.5854 34.9252 39.8827 35.0019L39.874 35.0019ZM30.1326 21.5604L30.822 22.2499L39.2525 22.2499C39.5574 22.2481 39.8595 22.3071 40.1414 22.4232C40.4233 22.5393 40.6792 22.7103 40.8944 22.9263L45.8518 27.8866C46.0673 28.1005 46.2382 28.3549 46.3548 28.6353C46.4714 28.9156 46.5313 29.2162 46.5311 29.5198C46.5311 29.7703 46.4906 30.0192 46.4112 30.2569C46.2762 30.6649 46.0298 31.0271 45.6998 31.3024C45.3699 31.5777 44.9694 31.7553 44.5438 31.8149L38.9808 32.5911L32.5911 38.9808L31.815 44.5409C31.7552 44.9671 31.5777 45.3681 31.3024 45.6989C31.0272 46.0297 30.6651 46.2771 30.2569 46.4133C29.8487 46.5495 29.4106 46.5691 28.9918 46.4699C28.5731 46.3708 28.1903 46.1567 27.8866 45.8518L22.9263 40.8944C22.7103 40.6792 22.5393 40.4233 22.4232 40.1414C22.3071 39.8595 22.2482 39.5574 22.2499 39.2525L22.2499 30.822L21.5605 30.1326C17.7058 26.2765 17.5396 21.6298 17.648 19.8116C17.6823 19.2478 17.9217 18.7161 18.3211 18.3167C18.7205 17.9173 19.2522 17.6779 19.816 17.6436C21.6299 17.5381 26.2765 17.7044 30.1326 21.559L30.1326 21.5604ZM29.5256 44.2186L30.2743 38.8493L24.5624 33.1345L24.5624 39.2525L29.5256 44.2186ZM31.4999 36.8013L36.8013 31.4999L28.498 23.1965C27.3865 22.0775 26.0484 21.2094 24.5736 20.6505C23.0988 20.0916 21.5214 19.8548 19.9475 19.9561C19.85 21.5292 20.0892 23.105 20.6492 24.5783C21.2093 26.0515 22.0772 27.3883 23.1951 28.4994L31.4999 36.8013ZM33.1345 24.5624L38.8479 30.2757L44.2186 29.5241L39.2525 24.5624L33.1345 24.5624Z" fill="white" fill-opacity="0.9"/>
<path d="M269.781 32.5306L263.031 39.2806C262.89 39.4213 262.699 39.5003 262.5 39.5003C262.301 39.5003 262.11 39.4213 261.969 39.2806C261.829 39.1398 261.75 38.949 261.75 38.7499C261.75 38.5509 261.829 38.36 261.969 38.2193L267.44 32.7499H252.75C252.551 32.7499 252.36 32.6709 252.22 32.5303C252.079 32.3896 252 32.1988 252 31.9999C252 31.801 252.079 31.6103 252.22 31.4696C252.36 31.3289 252.551 31.2499 252.75 31.2499H267.44L261.969 25.7806C261.829 25.6398 261.75 25.449 261.75 25.2499C261.75 25.0509 261.829 24.86 261.969 24.7193C262.11 24.5786 262.301 24.4995 262.5 24.4995C262.699 24.4995 262.89 24.5786 263.031 24.7193L269.781 31.4693C269.85 31.539 269.906 31.6217 269.943 31.7127C269.981 31.8038 270.001 31.9014 270.001 31.9999C270.001 32.0985 269.981 32.1961 269.943 32.2871C269.906 32.3782 269.85 32.4609 269.781 32.5306Z" fill="white" fill-opacity="0.87"/>
<path d="M62.328 30V18.8H64.92V27.888H70.536V30H62.328ZM77.1508 30V28.32L76.9908 27.952V24.944C76.9908 24.4107 76.8254 23.9947 76.4948 23.696C76.1748 23.3973 75.6788 23.248 75.0068 23.248C74.5481 23.248 74.0948 23.3227 73.6468 23.472C73.2094 23.6107 72.8361 23.8027 72.5268 24.048L71.6308 22.304C72.1001 21.9733 72.6654 21.7173 73.3268 21.536C73.9881 21.3547 74.6601 21.264 75.3428 21.264C76.6548 21.264 77.6734 21.5733 78.3988 22.192C79.1241 22.8107 79.4868 23.776 79.4868 25.088V30H77.1508ZM74.5268 30.128C73.8548 30.128 73.2788 30.016 72.7988 29.792C72.3188 29.5573 71.9508 29.2427 71.6948 28.848C71.4388 28.4533 71.3108 28.0107 71.3108 27.52C71.3108 27.008 71.4334 26.56 71.6788 26.176C71.9348 25.792 72.3348 25.4933 72.8788 25.28C73.4228 25.056 74.1321 24.944 75.0068 24.944H77.2948V26.4H75.2788C74.6921 26.4 74.2868 26.496 74.0628 26.688C73.8494 26.88 73.7428 27.12 73.7428 27.408C73.7428 27.728 73.8654 27.984 74.1108 28.176C74.3668 28.3573 74.7134 28.448 75.1508 28.448C75.5668 28.448 75.9401 28.352 76.2708 28.16C76.6014 27.9573 76.8414 27.664 76.9908 27.28L77.3748 28.432C77.1934 28.9867 76.8628 29.408 76.3828 29.696C75.9028 29.984 75.2841 30.128 74.5268 30.128ZM85.3778 30.128C84.6631 30.128 84.0231 29.9893 83.4578 29.712C82.9031 29.4347 82.4711 29.0133 82.1618 28.448C81.8524 27.872 81.6978 27.1413 81.6978 26.256V21.392H84.1938V25.888C84.1938 26.6027 84.3431 27.1307 84.6418 27.472C84.9511 27.8027 85.3831 27.968 85.9378 27.968C86.3218 27.968 86.6631 27.888 86.9618 27.728C87.2604 27.5573 87.4951 27.3013 87.6658 26.96C87.8364 26.608 87.9218 26.1707 87.9218 25.648V21.392H90.4178V30H88.0498V27.632L88.4818 28.32C88.1938 28.9173 87.7671 29.3707 87.2018 29.68C86.6471 29.9787 86.0391 30.128 85.3778 30.128ZM97.9621 21.264C98.6448 21.264 99.2528 21.4027 99.7861 21.68C100.33 21.9467 100.757 22.3627 101.066 22.928C101.375 23.4827 101.53 24.1973 101.53 25.072V30H99.0341V25.456C99.0341 24.7627 98.8795 24.2507 98.5701 23.92C98.2715 23.5893 97.8448 23.424 97.2901 23.424C96.8955 23.424 96.5381 23.5093 96.2181 23.68C95.9088 23.84 95.6635 24.0907 95.4821 24.432C95.3115 24.7733 95.2261 25.2107 95.2261 25.744V30H92.7301V21.392H95.1141V23.776L94.6661 23.056C94.9755 22.48 95.4181 22.0373 95.9941 21.728C96.5701 21.4187 97.2261 21.264 97.9621 21.264ZM108.015 30.128C107.087 30.128 106.26 29.9413 105.535 29.568C104.81 29.184 104.239 28.656 103.823 27.984C103.418 27.312 103.215 26.5493 103.215 25.696C103.215 24.832 103.418 24.0693 103.823 23.408C104.239 22.736 104.81 22.2133 105.535 21.84C106.26 21.456 107.087 21.264 108.015 21.264C108.922 21.264 109.711 21.456 110.383 21.84C111.055 22.2133 111.551 22.752 111.871 23.456L109.935 24.496C109.711 24.0907 109.428 23.792 109.087 23.6C108.756 23.408 108.394 23.312 107.999 23.312C107.572 23.312 107.188 23.408 106.847 23.6C106.506 23.792 106.234 24.064 106.031 24.416C105.839 24.768 105.743 25.1947 105.743 25.696C105.743 26.1973 105.839 26.624 106.031 26.976C106.234 27.328 106.506 27.6 106.847 27.792C107.188 27.984 107.572 28.08 107.999 28.08C108.394 28.08 108.756 27.9893 109.087 27.808C109.428 27.616 109.711 27.312 109.935 26.896L111.871 27.952C111.551 28.6453 111.055 29.184 110.383 29.568C109.711 29.9413 108.922 30.128 108.015 30.128ZM118.493 21.264C119.176 21.264 119.784 21.4027 120.317 21.68C120.861 21.9467 121.288 22.3627 121.597 22.928C121.907 23.4827 122.061 24.1973 122.061 25.072V30H119.565V25.456C119.565 24.7627 119.411 24.2507 119.101 23.92C118.803 23.5893 118.376 23.424 117.821 23.424C117.427 23.424 117.069 23.5093 116.749 23.68C116.44 23.84 116.195 24.0907 116.013 24.432C115.843 24.7733 115.757 25.2107 115.757 25.744V30H113.261V18.128H115.757V23.776L115.197 23.056C115.507 22.48 115.949 22.0373 116.525 21.728C117.101 21.4187 117.757 21.264 118.493 21.264ZM130.823 30L127.719 21.392H130.071L132.647 28.8H131.527L134.215 21.392H136.327L138.935 28.8H137.815L140.471 21.392H142.679L139.559 30H137.143L134.855 23.648H135.591L133.223 30H130.823ZM143.84 30V21.392H146.336V30H143.84ZM145.088 20.192C144.629 20.192 144.256 20.0587 143.968 19.792C143.68 19.5253 143.536 19.1947 143.536 18.8C143.536 18.4053 143.68 18.0747 143.968 17.808C144.256 17.5413 144.629 17.408 145.088 17.408C145.546 17.408 145.92 17.536 146.208 17.792C146.496 18.0373 146.64 18.3573 146.64 18.752C146.64 19.168 146.496 19.5147 146.208 19.792C145.93 20.0587 145.557 20.192 145.088 20.192ZM152.172 30.128C151.159 30.128 150.369 29.872 149.804 29.36C149.239 28.8373 148.956 28.064 148.956 27.04V19.488H151.452V27.008C151.452 27.3707 151.548 27.6533 151.74 27.856C151.932 28.048 152.193 28.144 152.524 28.144C152.919 28.144 153.255 28.0373 153.532 27.824L154.204 29.584C153.948 29.7653 153.639 29.904 153.276 30C152.924 30.0853 152.556 30.128 152.172 30.128ZM147.628 23.504V21.584H153.596V23.504H147.628ZM160.837 21.264C161.52 21.264 162.128 21.4027 162.661 21.68C163.205 21.9467 163.632 22.3627 163.941 22.928C164.25 23.4827 164.405 24.1973 164.405 25.072V30H161.909V25.456C161.909 24.7627 161.754 24.2507 161.445 23.92C161.146 23.5893 160.72 23.424 160.165 23.424C159.77 23.424 159.413 23.5093 159.093 23.68C158.784 23.84 158.538 24.0907 158.357 24.432C158.186 24.7733 158.101 25.2107 158.101 25.744V30H155.605V18.128H158.101V23.776L157.541 23.056C157.85 22.48 158.293 22.0373 158.869 21.728C159.445 21.4187 160.101 21.264 160.837 21.264ZM171.375 30V18.8H176.463C177.679 18.8 178.751 19.0347 179.679 19.504C180.607 19.9627 181.332 20.608 181.855 21.44C182.378 22.272 182.639 23.2587 182.639 24.4C182.639 25.5307 182.378 26.5173 181.855 27.36C181.332 28.192 180.607 28.8427 179.679 29.312C178.751 29.7707 177.679 30 176.463 30H171.375ZM173.967 27.872H176.335C177.082 27.872 177.727 27.7333 178.271 27.456C178.826 27.168 179.252 26.7627 179.551 26.24C179.86 25.7173 180.015 25.104 180.015 24.4C180.015 23.6853 179.86 23.072 179.551 22.56C179.252 22.0373 178.826 21.6373 178.271 21.36C177.727 21.072 177.082 20.928 176.335 20.928H173.967V27.872ZM184.418 30V21.392H186.914V30H184.418ZM185.666 20.192C185.207 20.192 184.834 20.0587 184.546 19.792C184.258 19.5253 184.114 19.1947 184.114 18.8C184.114 18.4053 184.258 18.0747 184.546 17.808C184.834 17.5413 185.207 17.408 185.666 17.408C186.124 17.408 186.498 17.536 186.786 17.792C187.074 18.0373 187.218 18.3573 187.218 18.752C187.218 19.168 187.074 19.5147 186.786 19.792C186.508 20.0587 186.135 20.192 185.666 20.192ZM194.318 30.128C193.593 30.128 192.958 29.968 192.414 29.648C191.87 29.328 191.443 28.8427 191.134 28.192C190.835 27.5307 190.686 26.6987 190.686 25.696C190.686 24.6827 190.83 23.8507 191.118 23.2C191.406 22.5493 191.822 22.064 192.366 21.744C192.91 21.424 193.561 21.264 194.318 21.264C195.129 21.264 195.854 21.4507 196.494 21.824C197.145 22.1867 197.657 22.6987 198.03 23.36C198.414 24.0213 198.606 24.8 198.606 25.696C198.606 26.6027 198.414 27.3867 198.03 28.048C197.657 28.7093 197.145 29.2213 196.494 29.584C195.854 29.9467 195.129 30.128 194.318 30.128ZM189.23 33.104V21.392H191.614V23.152L191.566 25.712L191.726 28.256V33.104H189.23ZM193.886 28.08C194.302 28.08 194.67 27.984 194.99 27.792C195.321 27.6 195.582 27.328 195.774 26.976C195.977 26.6133 196.078 26.1867 196.078 25.696C196.078 25.1947 195.977 24.768 195.774 24.416C195.582 24.064 195.321 23.792 194.99 23.6C194.67 23.408 194.302 23.312 193.886 23.312C193.47 23.312 193.097 23.408 192.766 23.6C192.435 23.792 192.174 24.064 191.982 24.416C191.79 24.768 191.694 25.1947 191.694 25.696C191.694 26.1867 191.79 26.6133 191.982 26.976C192.174 27.328 192.435 27.6 192.766 27.792C193.097 27.984 193.47 28.08 193.886 28.08ZM200.277 30V18.128H202.773V30H200.277ZM209.186 30.128C208.268 30.128 207.452 29.936 206.738 29.552C206.034 29.168 205.474 28.6453 205.058 27.984C204.652 27.312 204.45 26.5493 204.45 25.696C204.45 24.832 204.652 24.0693 205.058 23.408C205.474 22.736 206.034 22.2133 206.738 21.84C207.452 21.456 208.268 21.264 209.186 21.264C210.092 21.264 210.903 21.456 211.618 21.84C212.332 22.2133 212.892 22.7307 213.298 23.392C213.703 24.0533 213.906 24.8213 213.906 25.696C213.906 26.5493 213.703 27.312 213.298 27.984C212.892 28.6453 212.332 29.168 211.618 29.552C210.903 29.936 210.092 30.128 209.186 30.128ZM209.186 28.08C209.602 28.08 209.975 27.984 210.306 27.792C210.636 27.6 210.898 27.328 211.09 26.976C211.282 26.6133 211.378 26.1867 211.378 25.696C211.378 25.1947 211.282 24.768 211.09 24.416C210.898 24.064 210.636 23.792 210.306 23.6C209.975 23.408 209.602 23.312 209.186 23.312C208.77 23.312 208.396 23.408 208.066 23.6C207.735 23.792 207.468 24.064 207.266 24.416C207.074 24.768 206.978 25.1947 206.978 25.696C206.978 26.1867 207.074 26.6133 207.266 26.976C207.468 27.328 207.735 27.6 208.066 27.792C208.396 27.984 208.77 28.08 209.186 28.08ZM215.574 30V21.392H218.07V30H215.574ZM216.822 20.192C216.363 20.192 215.99 20.0587 215.702 19.792C215.414 19.5253 215.27 19.1947 215.27 18.8C215.27 18.4053 215.414 18.0747 215.702 17.808C215.99 17.5413 216.363 17.408 216.822 17.408C217.281 17.408 217.654 17.536 217.942 17.792C218.23 18.0373 218.374 18.3573 218.374 18.752C218.374 19.168 218.23 19.5147 217.942 19.792C217.665 20.0587 217.291 20.192 216.822 20.192Z" fill="white"/>
<path d="M61.54 46V45.4L65.68 38.968H61.912V38.128H66.928V38.716L62.776 45.148H66.964V46H61.54ZM70.5589 46.144C70.0389 46.144 69.5629 46.024 69.1309 45.784C68.7069 45.536 68.3709 45.188 68.1229 44.74C67.8749 44.284 67.7509 43.732 67.7509 43.084C67.7509 42.452 67.8789 41.908 68.1349 41.452C68.3909 40.996 68.7189 40.644 69.1189 40.396C69.5189 40.148 69.9429 40.024 70.3909 40.024C70.8869 40.024 71.3069 40.14 71.6509 40.372C72.0029 40.596 72.2669 40.912 72.4429 41.32C72.6189 41.728 72.7069 42.208 72.7069 42.76C72.7069 42.864 72.7029 42.964 72.6949 43.06C72.6949 43.156 72.6829 43.252 72.6589 43.348H68.4589V42.568H71.8189C71.8189 42.008 71.6949 41.58 71.4469 41.284C71.2069 40.98 70.8589 40.828 70.4029 40.828C70.1389 40.828 69.8789 40.904 69.6229 41.056C69.3669 41.2 69.1549 41.436 68.9869 41.764C68.8269 42.092 68.7469 42.528 68.7469 43.072C68.7469 43.568 68.8309 43.984 68.9989 44.32C69.1749 44.656 69.4109 44.912 69.7069 45.088C70.0029 45.256 70.3269 45.34 70.6789 45.34C70.9589 45.34 71.2189 45.3 71.4589 45.22C71.7069 45.14 71.9309 45.032 72.1309 44.896L72.4909 45.544C72.2349 45.72 71.9469 45.864 71.6269 45.976C71.3149 46.088 70.9589 46.144 70.5589 46.144ZM74.1481 46V40.168H74.9641L75.0481 41.224H75.0841C75.2761 40.856 75.5161 40.564 75.8041 40.348C76.0921 40.132 76.4041 40.024 76.7401 40.024C76.8681 40.024 76.9801 40.032 77.0761 40.048C77.1721 40.064 77.2681 40.096 77.3641 40.144L77.1481 40.984C77.0601 40.96 76.9761 40.944 76.8961 40.936C76.8241 40.92 76.7281 40.912 76.6081 40.912C76.3601 40.912 76.1001 41.012 75.8281 41.212C75.5641 41.412 75.3321 41.76 75.1321 42.256V46H74.1481ZM80.459 46.144C79.987 46.144 79.543 46.024 79.127 45.784C78.719 45.544 78.387 45.196 78.131 44.74C77.883 44.284 77.759 43.736 77.759 43.096C77.759 42.44 77.883 41.884 78.131 41.428C78.387 40.972 78.719 40.624 79.127 40.384C79.543 40.144 79.987 40.024 80.459 40.024C80.939 40.024 81.383 40.144 81.791 40.384C82.199 40.624 82.527 40.972 82.775 41.428C83.031 41.884 83.159 42.44 83.159 43.096C83.159 43.736 83.031 44.284 82.775 44.74C82.527 45.196 82.199 45.544 81.791 45.784C81.383 46.024 80.939 46.144 80.459 46.144ZM80.459 45.328C80.795 45.328 81.091 45.236 81.347 45.052C81.603 44.86 81.799 44.596 81.935 44.26C82.071 43.924 82.139 43.536 82.139 43.096C82.139 42.648 82.071 42.256 81.935 41.92C81.799 41.576 81.603 41.312 81.347 41.128C81.091 40.936 80.795 40.84 80.459 40.84C80.123 40.84 79.827 40.936 79.571 41.128C79.323 41.312 79.127 41.576 78.983 41.92C78.847 42.256 78.779 42.648 78.779 43.096C78.779 43.536 78.847 43.924 78.983 44.26C79.127 44.596 79.323 44.86 79.571 45.052C79.827 45.236 80.123 45.328 80.459 45.328ZM84.2733 43.372V42.616H87.0333V43.372H84.2733ZM90.8078 46.144C90.2878 46.144 89.8198 46.024 89.4038 45.784C88.9878 45.544 88.6598 45.196 88.4198 44.74C88.1798 44.284 88.0598 43.736 88.0598 43.096C88.0598 42.44 88.1878 41.884 88.4438 41.428C88.7078 40.972 89.0518 40.624 89.4758 40.384C89.9078 40.144 90.3718 40.024 90.8678 40.024C91.2518 40.024 91.5798 40.088 91.8518 40.216C92.1318 40.344 92.3718 40.508 92.5718 40.708L92.0798 41.32C91.9358 41.176 91.7638 41.064 91.5638 40.984C91.3718 40.896 91.1518 40.852 90.9038 40.852C90.5598 40.852 90.2478 40.948 89.9678 41.14C89.6958 41.324 89.4798 41.584 89.3198 41.92C89.1598 42.256 89.0798 42.648 89.0798 43.096C89.0798 43.536 89.1558 43.924 89.3078 44.26C89.4598 44.596 89.6718 44.86 89.9438 45.052C90.2158 45.236 90.5318 45.328 90.8918 45.328C91.1638 45.328 91.4158 45.276 91.6478 45.172C91.8798 45.068 92.0798 44.936 92.2478 44.776L92.6798 45.376C92.4318 45.608 92.1518 45.796 91.8398 45.94C91.5278 46.076 91.1838 46.144 90.8078 46.144ZM95.9864 46.144C95.5144 46.144 95.0704 46.024 94.6544 45.784C94.2464 45.544 93.9144 45.196 93.6584 44.74C93.4104 44.284 93.2864 43.736 93.2864 43.096C93.2864 42.44 93.4104 41.884 93.6584 41.428C93.9144 40.972 94.2464 40.624 94.6544 40.384C95.0704 40.144 95.5144 40.024 95.9864 40.024C96.4664 40.024 96.9104 40.144 97.3184 40.384C97.7264 40.624 98.0544 40.972 98.3024 41.428C98.5584 41.884 98.6864 42.44 98.6864 43.096C98.6864 43.736 98.5584 44.284 98.3024 44.74C98.0544 45.196 97.7264 45.544 97.3184 45.784C96.9104 46.024 96.4664 46.144 95.9864 46.144ZM95.9864 45.328C96.3224 45.328 96.6184 45.236 96.8744 45.052C97.1304 44.86 97.3264 44.596 97.4624 44.26C97.5984 43.924 97.6664 43.536 97.6664 43.096C97.6664 42.648 97.5984 42.256 97.4624 41.92C97.3264 41.576 97.1304 41.312 96.8744 41.128C96.6184 40.936 96.3224 40.84 95.9864 40.84C95.6504 40.84 95.3544 40.936 95.0984 41.128C94.8504 41.312 94.6544 41.576 94.5104 41.92C94.3744 42.256 94.3064 42.648 94.3064 43.096C94.3064 43.536 94.3744 43.924 94.5104 44.26C94.6544 44.596 94.8504 44.86 95.0984 45.052C95.3544 45.236 95.6504 45.328 95.9864 45.328ZM100.222 46V40.168H101.038L101.122 41.008H101.158C101.438 40.728 101.734 40.496 102.046 40.312C102.358 40.12 102.714 40.024 103.114 40.024C103.73 40.024 104.178 40.22 104.458 40.612C104.746 40.996 104.89 41.56 104.89 42.304V46H103.906V42.436C103.906 41.884 103.818 41.488 103.642 41.248C103.474 41 103.194 40.876 102.802 40.876C102.506 40.876 102.238 40.952 101.998 41.104C101.766 41.256 101.502 41.48 101.206 41.776V46H100.222ZM106.953 46V39.244C106.953 38.852 107.013 38.512 107.133 38.224C107.253 37.928 107.437 37.704 107.685 37.552C107.941 37.392 108.265 37.312 108.657 37.312C108.833 37.312 109.005 37.332 109.173 37.372C109.349 37.404 109.501 37.448 109.629 37.504L109.413 38.224C109.181 38.152 108.961 38.116 108.753 38.116C108.481 38.116 108.277 38.212 108.141 38.404C108.005 38.588 107.937 38.868 107.937 39.244V46H106.953ZM106.089 40.972V40.228L107.001 40.168H109.173V40.972H106.089ZM110.289 46V40.168H111.273V46H110.289ZM110.781 38.968C110.589 38.968 110.429 38.908 110.301 38.788C110.181 38.668 110.121 38.512 110.121 38.32C110.121 38.128 110.181 37.972 110.301 37.852C110.429 37.732 110.589 37.672 110.781 37.672C110.973 37.672 111.129 37.732 111.249 37.852C111.377 37.972 111.441 38.128 111.441 38.32C111.441 38.512 111.377 38.668 111.249 38.788C111.129 38.908 110.973 38.968 110.781 38.968ZM115.21 48.688C114.738 48.688 114.318 48.624 113.95 48.496C113.59 48.376 113.306 48.2 113.098 47.968C112.898 47.736 112.798 47.452 112.798 47.116C112.798 46.868 112.874 46.628 113.026 46.396C113.178 46.172 113.386 45.972 113.65 45.796V45.748C113.506 45.652 113.382 45.528 113.278 45.376C113.182 45.216 113.134 45.024 113.134 44.8C113.134 44.552 113.202 44.336 113.338 44.152C113.482 43.968 113.626 43.824 113.77 43.72V43.672C113.586 43.512 113.414 43.296 113.254 43.024C113.094 42.752 113.014 42.444 113.014 42.1C113.014 41.676 113.114 41.308 113.314 40.996C113.522 40.684 113.79 40.444 114.118 40.276C114.454 40.108 114.818 40.024 115.21 40.024C115.37 40.024 115.522 40.04 115.666 40.072C115.81 40.096 115.934 40.128 116.038 40.168H118.066V40.924H116.854V40.972C116.998 41.1 117.114 41.26 117.202 41.452C117.298 41.644 117.346 41.872 117.346 42.136C117.346 42.552 117.25 42.912 117.058 43.216C116.866 43.512 116.61 43.744 116.29 43.912C115.97 44.072 115.61 44.152 115.21 44.152C115.066 44.152 114.918 44.136 114.766 44.104C114.614 44.064 114.47 44.012 114.334 43.948C114.238 44.036 114.15 44.132 114.07 44.236C113.998 44.34 113.962 44.476 113.962 44.644C113.962 44.828 114.034 44.98 114.178 45.1C114.33 45.22 114.602 45.28 114.994 45.28H116.122C116.802 45.28 117.31 45.392 117.646 45.616C117.99 45.832 118.162 46.184 118.162 46.672C118.162 47.032 118.042 47.364 117.802 47.668C117.562 47.972 117.218 48.216 116.77 48.4C116.33 48.592 115.81 48.688 115.21 48.688ZM115.21 43.492C115.434 43.492 115.638 43.436 115.822 43.324C116.014 43.204 116.166 43.04 116.278 42.832C116.39 42.624 116.446 42.38 116.446 42.1C116.446 41.668 116.326 41.336 116.086 41.104C115.846 40.864 115.554 40.744 115.21 40.744C114.866 40.744 114.574 40.864 114.334 41.104C114.094 41.336 113.974 41.668 113.974 42.1C113.974 42.38 114.03 42.624 114.142 42.832C114.254 43.04 114.402 43.204 114.586 43.324C114.778 43.436 114.986 43.492 115.21 43.492ZM115.354 48.004C115.722 48.004 116.042 47.948 116.314 47.836C116.594 47.724 116.81 47.576 116.962 47.392C117.122 47.208 117.202 47.016 117.202 46.816C117.202 46.544 117.098 46.356 116.89 46.252C116.69 46.148 116.402 46.096 116.026 46.096H115.018C114.906 46.096 114.782 46.088 114.646 46.072C114.518 46.056 114.39 46.032 114.262 46C114.046 46.152 113.89 46.312 113.794 46.48C113.706 46.648 113.662 46.816 113.662 46.984C113.662 47.296 113.81 47.544 114.106 47.728C114.41 47.912 114.826 48.004 115.354 48.004ZM123.683 46.144C122.947 46.144 122.359 45.88 121.919 45.352C121.487 44.816 121.271 44.064 121.271 43.096C121.271 42.464 121.387 41.92 121.619 41.464C121.859 41 122.171 40.644 122.555 40.396C122.939 40.148 123.355 40.024 123.803 40.024C124.147 40.024 124.439 40.084 124.679 40.204C124.927 40.316 125.179 40.48 125.435 40.696L125.387 39.7V37.456H126.383V46H125.567L125.483 45.316H125.447C125.223 45.54 124.959 45.736 124.655 45.904C124.351 46.064 124.027 46.144 123.683 46.144ZM123.899 45.316C124.171 45.316 124.427 45.248 124.667 45.112C124.907 44.976 125.147 44.776 125.387 44.512V41.464C125.147 41.24 124.911 41.084 124.679 40.996C124.447 40.9 124.211 40.852 123.971 40.852C123.659 40.852 123.375 40.948 123.119 41.14C122.871 41.324 122.671 41.584 122.519 41.92C122.367 42.248 122.291 42.636 122.291 43.084C122.291 43.78 122.431 44.328 122.711 44.728C122.991 45.12 123.387 45.316 123.899 45.316ZM130.711 46.144C130.191 46.144 129.715 46.024 129.283 45.784C128.859 45.536 128.523 45.188 128.275 44.74C128.027 44.284 127.903 43.732 127.903 43.084C127.903 42.452 128.031 41.908 128.287 41.452C128.543 40.996 128.871 40.644 129.271 40.396C129.671 40.148 130.095 40.024 130.543 40.024C131.039 40.024 131.459 40.14 131.803 40.372C132.155 40.596 132.419 40.912 132.595 41.32C132.771 41.728 132.859 42.208 132.859 42.76C132.859 42.864 132.855 42.964 132.847 43.06C132.847 43.156 132.835 43.252 132.811 43.348H128.611V42.568H131.971C131.971 42.008 131.847 41.58 131.599 41.284C131.359 40.98 131.011 40.828 130.555 40.828C130.291 40.828 130.031 40.904 129.775 41.056C129.519 41.2 129.307 41.436 129.139 41.764C128.979 42.092 128.899 42.528 128.899 43.072C128.899 43.568 128.983 43.984 129.151 44.32C129.327 44.656 129.563 44.912 129.859 45.088C130.155 45.256 130.479 45.34 130.831 45.34C131.111 45.34 131.371 45.3 131.611 45.22C131.859 45.14 132.083 45.032 132.283 44.896L132.643 45.544C132.387 45.72 132.099 45.864 131.779 45.976C131.467 46.088 131.111 46.144 130.711 46.144ZM135.619 46L133.519 40.168H134.539L135.643 43.48C135.731 43.76 135.819 44.048 135.907 44.344C136.003 44.632 136.095 44.916 136.183 45.196H136.231C136.311 44.916 136.399 44.632 136.495 44.344C136.591 44.048 136.679 43.76 136.759 43.48L137.863 40.168H138.835L136.771 46H135.619ZM144.727 46.144C144.207 46.144 143.731 46.024 143.299 45.784C142.875 45.536 142.539 45.188 142.291 44.74C142.043 44.284 141.919 43.732 141.919 43.084C141.919 42.452 142.047 41.908 142.303 41.452C142.559 40.996 142.887 40.644 143.287 40.396C143.687 40.148 144.111 40.024 144.559 40.024C145.055 40.024 145.475 40.14 145.819 40.372C146.171 40.596 146.435 40.912 146.611 41.32C146.787 41.728 146.875 42.208 146.875 42.76C146.875 42.864 146.871 42.964 146.863 43.06C146.863 43.156 146.851 43.252 146.827 43.348H142.627V42.568H145.987C145.987 42.008 145.863 41.58 145.615 41.284C145.375 40.98 145.027 40.828 144.571 40.828C144.307 40.828 144.047 40.904 143.791 41.056C143.535 41.2 143.323 41.436 143.155 41.764C142.995 42.092 142.915 42.528 142.915 43.072C142.915 43.568 142.999 43.984 143.167 44.32C143.343 44.656 143.579 44.912 143.875 45.088C144.171 45.256 144.495 45.34 144.847 45.34C145.127 45.34 145.387 45.3 145.627 45.22C145.875 45.14 146.099 45.032 146.299 44.896L146.659 45.544C146.403 45.72 146.115 45.864 145.795 45.976C145.483 46.088 145.127 46.144 144.727 46.144ZM148.316 46V40.168H149.132L149.216 41.008H149.252C149.532 40.728 149.828 40.496 150.14 40.312C150.452 40.12 150.808 40.024 151.208 40.024C151.824 40.024 152.272 40.22 152.552 40.612C152.84 40.996 152.984 41.56 152.984 42.304V46H152V42.436C152 41.884 151.912 41.488 151.736 41.248C151.568 41 151.288 40.876 150.896 40.876C150.6 40.876 150.332 40.952 150.092 41.104C149.86 41.256 149.596 41.48 149.3 41.776V46H148.316ZM156.139 46L154.039 40.168H155.059L156.163 43.48C156.251 43.76 156.339 44.048 156.427 44.344C156.523 44.632 156.615 44.916 156.703 45.196H156.751C156.831 44.916 156.919 44.632 157.015 44.344C157.111 44.048 157.199 43.76 157.279 43.48L158.383 40.168H159.355L157.291 46H156.139ZM160.48 46V40.168H161.464V46H160.48ZM160.972 38.968C160.78 38.968 160.62 38.908 160.492 38.788C160.372 38.668 160.312 38.512 160.312 38.32C160.312 38.128 160.372 37.972 160.492 37.852C160.62 37.732 160.78 37.672 160.972 37.672C161.164 37.672 161.32 37.732 161.44 37.852C161.568 37.972 161.632 38.128 161.632 38.32C161.632 38.512 161.568 38.668 161.44 38.788C161.32 38.908 161.164 38.968 160.972 38.968ZM163.433 46V40.168H164.249L164.333 41.224H164.369C164.561 40.856 164.801 40.564 165.089 40.348C165.377 40.132 165.689 40.024 166.025 40.024C166.153 40.024 166.265 40.032 166.361 40.048C166.457 40.064 166.553 40.096 166.649 40.144L166.433 40.984C166.345 40.96 166.261 40.944 166.181 40.936C166.109 40.92 166.013 40.912 165.893 40.912C165.645 40.912 165.385 41.012 165.113 41.212C164.849 41.412 164.617 41.76 164.417 42.256V46H163.433ZM169.744 46.144C169.272 46.144 168.828 46.024 168.412 45.784C168.004 45.544 167.672 45.196 167.416 44.74C167.168 44.284 167.044 43.736 167.044 43.096C167.044 42.44 167.168 41.884 167.416 41.428C167.672 40.972 168.004 40.624 168.412 40.384C168.828 40.144 169.272 40.024 169.744 40.024C170.224 40.024 170.668 40.144 171.076 40.384C171.484 40.624 171.812 40.972 172.06 41.428C172.316 41.884 172.444 42.44 172.444 43.096C172.444 43.736 172.316 44.284 172.06 44.74C171.812 45.196 171.484 45.544 171.076 45.784C170.668 46.024 170.224 46.144 169.744 46.144ZM169.744 45.328C170.08 45.328 170.376 45.236 170.632 45.052C170.888 44.86 171.084 44.596 171.22 44.26C171.356 43.924 171.424 43.536 171.424 43.096C171.424 42.648 171.356 42.256 171.22 41.92C171.084 41.576 170.888 41.312 170.632 41.128C170.376 40.936 170.08 40.84 169.744 40.84C169.408 40.84 169.112 40.936 168.856 41.128C168.608 41.312 168.412 41.576 168.268 41.92C168.132 42.256 168.064 42.648 168.064 43.096C168.064 43.536 168.132 43.924 168.268 44.26C168.412 44.596 168.608 44.86 168.856 45.052C169.112 45.236 169.408 45.328 169.744 45.328ZM173.98 46V40.168H174.796L174.88 41.008H174.916C175.196 40.728 175.492 40.496 175.804 40.312C176.116 40.12 176.472 40.024 176.872 40.024C177.488 40.024 177.936 40.22 178.216 40.612C178.504 40.996 178.648 41.56 178.648 42.304V46H177.664V42.436C177.664 41.884 177.576 41.488 177.4 41.248C177.232 41 176.952 40.876 176.56 40.876C176.264 40.876 175.996 40.952 175.756 41.104C175.524 41.256 175.26 41.48 174.964 41.776V46H173.98ZM180.543 46V40.168H181.359L181.443 41.008H181.479C181.735 40.736 182.011 40.504 182.307 40.312C182.611 40.12 182.939 40.024 183.291 40.024C183.739 40.024 184.087 40.124 184.335 40.324C184.591 40.524 184.779 40.796 184.899 41.14C185.203 40.804 185.511 40.536 185.823 40.336C186.135 40.128 186.467 40.024 186.819 40.024C187.427 40.024 187.875 40.22 188.163 40.612C188.451 40.996 188.595 41.56 188.595 42.304V46H187.611V42.436C187.611 41.884 187.523 41.488 187.347 41.248C187.171 41 186.899 40.876 186.531 40.876C186.299 40.876 186.063 40.952 185.823 41.104C185.591 41.248 185.339 41.472 185.067 41.776V46H184.083V42.436C184.083 41.884 183.995 41.488 183.819 41.248C183.643 41 183.367 40.876 182.991 40.876C182.551 40.876 182.063 41.176 181.527 41.776V46H180.543ZM192.856 46.144C192.336 46.144 191.86 46.024 191.428 45.784C191.004 45.536 190.668 45.188 190.42 44.74C190.172 44.284 190.048 43.732 190.048 43.084C190.048 42.452 190.176 41.908 190.432 41.452C190.688 40.996 191.016 40.644 191.416 40.396C191.816 40.148 192.24 40.024 192.688 40.024C193.184 40.024 193.604 40.14 193.948 40.372C194.3 40.596 194.564 40.912 194.74 41.32C194.916 41.728 195.004 42.208 195.004 42.76C195.004 42.864 195 42.964 194.992 43.06C194.992 43.156 194.98 43.252 194.956 43.348H190.756V42.568H194.116C194.116 42.008 193.992 41.58 193.744 41.284C193.504 40.98 193.156 40.828 192.7 40.828C192.436 40.828 192.176 40.904 191.92 41.056C191.664 41.2 191.452 41.436 191.284 41.764C191.124 42.092 191.044 42.528 191.044 43.072C191.044 43.568 191.128 43.984 191.296 44.32C191.472 44.656 191.708 44.912 192.004 45.088C192.3 45.256 192.624 45.34 192.976 45.34C193.256 45.34 193.516 45.3 193.756 45.22C194.004 45.14 194.228 45.032 194.428 44.896L194.788 45.544C194.532 45.72 194.244 45.864 193.924 45.976C193.612 46.088 193.256 46.144 192.856 46.144ZM196.445 46V40.168H197.261L197.345 41.008H197.381C197.661 40.728 197.957 40.496 198.269 40.312C198.581 40.12 198.937 40.024 199.337 40.024C199.953 40.024 200.401 40.22 200.681 40.612C200.969 40.996 201.113 41.56 201.113 42.304V46H200.129V42.436C200.129 41.884 200.041 41.488 199.865 41.248C199.697 41 199.417 40.876 199.025 40.876C198.729 40.876 198.461 40.952 198.221 41.104C197.989 41.256 197.725 41.48 197.429 41.776V46H196.445ZM204.843 46.108C204.227 46.108 203.795 45.928 203.547 45.568C203.299 45.208 203.175 44.74 203.175 44.164V40.972H202.311V40.228L203.223 40.168L203.343 38.296H204.171V40.168H205.755V40.972H204.171V44.176C204.171 44.528 204.235 44.804 204.363 45.004C204.499 45.204 204.735 45.304 205.071 45.304C205.175 45.304 205.283 45.296 205.395 45.28C205.507 45.256 205.619 45.216 205.731 45.16L205.947 45.856C205.795 45.928 205.623 45.988 205.431 46.036C205.239 46.084 205.043 46.108 204.843 46.108Z" fill="white" fill-opacity="0.8"/>
<defs>
<linearGradient id="paint0_linear_3192_7470" x1="0" y1="0" x2="212.853" y2="165.681" gradientUnits="userSpaceOnUse">
<stop stop-color="#6200EE"/>
<stop offset="1" stop-color="#EC609C"/>
</linearGradient>
</defs>
</svg>
