<?xml version="1.0" encoding="UTF-8"?>
<svg xmlns="http://www.w3.org/2000/svg" width="100%" height="100%" viewBox="0 0 1213 354" fill-rule="nonzero" stroke-linejoin="round" stroke-miterlimit="2"><path d="M14.77 333.646l2.515 1.34 4.08 1.978 25.004 12c2.06.997 3.65 1.672 4.98 2.082L41.296 82.115c-1.563-.232-3.382-.635-5.738-1.225L16.73 76.177l-9.194-2.284-4.5-1.14c-.675-.175-1.4-.303-2.13-.62l12.67 260.73c.062.056.18.143.322.24a10.41 10.41 0 0 0 .875.544" fill="#d06f19"/><path d="M142.297 58.74l-.978.325-2.5.7-4.072 1.003-8.966 2.194-71.45 17.56-6.7 1.532 9.647 269a12.46 12.46 0 0 0 .731-.25c1.44-.544 3.138-1.36 5.438-2.397l16.206-7.338 61.61-28c1.35-.65 2.83-1.45 3.5-2.022.194-.16.322-.306.344-.363l.012-.022a.56.56 0 0 1 .047-.146c.006-.007.006-.013.01-.02l-.18-21.2-2.153-230.8-.563.254" fill="#f8981c"/><path d="M248.752 246.717l4.465-215.38c-.4.275-.925.55-1.62.707l-8.004 1.975-61.9 15.2-5.73 1.272.103 246.625c.1-.035.2-.057.287-.088 1.285-.447 2.825-1.147 4.93-2.097l65.935-29.91c.384-.188.784-.416.987-.64.103-.097.14-.165.172-.237v-.013l.36-17.347c-.01-.025.006-.047.006-.068" fill="#d8d9da"/><path d="M282.08 24.56a17.01 17.01 0 0 1-2.35.406l-6.3 227.785.938-.266c1.18-.378 2.6-.978 4.474-1.825l11.54-5.225 40.922-18.553 3.078-1.49c.18-.106.313-.197.335-.225l.012-.006c.028-.04.078-.075.13-.097v-.006c-.01-.038-.018-.07-.01-.12l.04-1.016v-.02L344.577 9.14a5.61 5.61 0 0 1-.741.247L282.08 24.56" fill="#717174"/><path d="M271.378 20.832c1.996.32 3.9.8 5.837.834.438.012.884 0 1.328-.034 2.138-.185 4.166-.885 6.3-1.4l56.565-13.754.4-.093-.112-.022-2.382-.38-4.084-.597-27-3.853c-1.784-.254-3.506-.63-5.244-.67a11.62 11.62 0 0 0-1.775.084c-2.118.272-4.172.897-6.3 1.378L237.57 15.35c2.07.503 4.588.766 6.89 1.135l26.916 4.347" fill="#878788"/><path d="M250.305 27.643c.37.097.694.19.957.306l.08.047c.75.294 1.503.706 2.04 1.3a2.81 2.81 0 0 1 .529.865c0 .006.006.01.012.02v.02c.078.2.113.412.134.634.007.04.022.08.022.128l-.003.13c0 .013.003.035.003.057l-4.465 215.265 14.753 4.835 3.94 1.225 6.02-227.688-.822-.106-36.762-6.022c-.653-.1-1.285-.22-1.953-.46l-.107 6.753 12.272 2.08 1.722.278a10.33 10.33 0 0 1 1.613.322h.015z" fill="#54534a"/><path d="M142.297 55.445c.66.487 1.19 1.225 1.366 2.2.025.062.047.118.047.2v.297l.012.316-.012.144 2.153 229.24 19.763 7.675 5.003 1.756-.432-246.634c-1.503-.184-3.26-.52-5.67-.99l-31.444-6.243-3.69-.866.1 9.69 3.92.81 4.62.956 1.57.353h.006c.835.19 1.844.488 2.68 1.107" fill="#bec0c2"/><path d="M334.894 223.902v.02l-.044 1.016c-.01.05 0 .08.01.12v.006c-.05.022-.1.056-.13.097l-.012.006c-.02.028-.15.12-.332.225-.64.37-1.915.966-3.078 1.49l-2.5 1.1-38.432 17.453-11.543 5.225-4.472 1.822c-.328.112-.638.197-.938.265l6.3-227.78c.775-.084 1.56-.21 2.35-.406l61.753-15.178c.175-.044.46-.125.744-.244l-9.684 214.763zM345.45 8.78l.006-.075c.01-.04-.012-.085-.015-.125l-.032-.322c-.006-.013-.006-.03-.006-.04-.122-.675-.45-1.24-.91-1.665-.57-.53-1.3-.835-2.066-.925a19.28 19.28 0 0 0-.959-.172l-6.1-.925L308.362.68c-1.756-.25-3.503-.628-5.34-.675-.635-.016-1.266.006-1.916.1-2.21.288-4.294.925-6.378 1.394l-56.634 12.85c-.007.006-.01 0-.022 0-1.072.216-2.05.525-2.813 1.003-.372.24-.697.53-.928.872-.234.347-.38.76-.387 1.203v.03l-.12 7.366.86.147.107-6.75c.668.237 1.3.356 1.953.456h-.01l37.59 6.128-6.02 227.688-3.937-1.225-14.753-4.835-.047 2.022 14.815 4.86c3.282 1.08 5.116 1.706 6.878 1.75 1.044.028 2.04-.163 3.232-.572 1.2-.403 2.587-1.016 4.475-1.872l49.953-22.722 2.994-1.316 1.768-.862c.847-.397 1.37-.788 1.678-1.28s.36-1.02.372-1.582l.013-.74.006-.15 9.69-215.044c.006-.02.022-.037.022-.053 0-.03-.016-.05-.016-.08" fill="#a1a1a4"/><path d="M248.746 246.717l-.01.068-.018 1.103-.34 16.257c-.022.072-.072.14-.163.237-.203.225-.603.453-.993.64l-.95.42-7.38 3.35-57.6 26.14-4.93 2.097c-.103.025-.2.053-.294.088l-.1-246.625 5.734-1.272 69.894-17.175a4.56 4.56 0 0 0 1.622-.707l-4.472 215.38zm5.334-215.56c0-.02-.003-.04-.003-.053v-.13c0-.05-.013-.088-.025-.128-.022-.222-.056-.438-.128-.635l-.007-.018c-.006-.013-.006-.016-.006-.022-.128-.32-.303-.613-.528-.863-.54-.606-1.29-1.015-2.04-1.31-.034-.016-.056-.035-.1-.05-.253-.116-.578-.206-.95-.306h-.013c-.653-.182-1.237-.28-1.612-.32v-.006l-1.722-.275-30.444-5.16c-1.947-.328-3.9-.822-5.962-.875a12.75 12.75 0 0 0-1.603.056c-2.572.263-4.957 1.03-7.375 1.58l-45.59 10.34-16.784 3.816-7.313 1.71c-.92.197-1.725.544-2.34 1.08s-1.006 1.272-1.025 2.147v.132l.122 10.17.863.182-.1-9.69c1.075.325 2.47.62 3.685.866l31.444 6.243 5.675.99.428 246.634c-1.297-.343-2.87-.918-5.003-1.756l-19.763-7.675.025 2.085 19.8 7.725c3.525 1.375 5.506 2.093 7.366 2.14 1.153.03 2.23-.212 3.515-.687 1.29-.482 2.816-1.197 4.916-2.138l65.684-29.862c.725-.288 1.272-.697 1.62-1.263.28-.46.413-1.003.463-1.606.006-.06.02-.1.02-.156 0-.022-.006-.057-.006-.078l.006-.172-.006-.725 4.82-231.938z" fill="#eff0f1"/><path d="M145.184 310.517a.55.55 0 0 0-.047.146l-.012.022c-.02.053-.147.2-.344.363-.68.572-2.156 1.37-3.51 2.02l-2.89 1.343-8.4 3.8-66.532 30.178-5.44 2.397-.732.25-9.646-269c1.784-.313 3.837-.832 6.7-1.535l84.487-20.753 2.494-.694a21.7 21.7 0 0 0 .975-.321l.562-.254 2.153 230.816.182 21.19c-.003.01-.003.015-.01.022m-98.812 38.44l-29.088-13.972-2.512-1.34c-.35-.19-.653-.388-.878-.54l-.32-.244a7.31 7.31 0 0 1-.044-.556L.906 72.135c.728.313 1.456.44 2.13.616l4.497 1.14 9.197 2.287 18.828 4.713 5.738 1.22 10.056 268.925c-1.33-.412-2.925-1.087-4.98-2.08m99.678-38.81l-2.328-251.7a4.5 4.5 0 0 0-.013-.316v-.297c0-.072-.022-.128-.047-.2a3.46 3.46 0 0 0-1.365-2.2c-.835-.62-1.847-.916-2.68-1.1h-.007l-1.568-.35h.006l-31.738-6.568c-2.193-.457-4.36-1.138-6.734-1.2a11.24 11.24 0 0 0-1.128.021c-3.013.2-5.78 1.122-8.578 1.757L3.85 67.55c-.013.006-.022 0-.03.006-.963.216-1.885.597-2.59 1.178C.59 69.248.14 69.967.044 70.817v.003c-.016.025-.01.05-.016.068-.006.057-.028.1-.028.166v.016l.006.24L12.69 332.873c.006.05.018.12.04.162.006.028.013.04.013.063s.01.034.01.062c.07.447.19.863.41 1.24.282.494.722.897 1.322 1.253.01.006.022.022.032.022l.256.153c.028.013.04.025.078.03.9.516 2.31 1.213 3.64 1.847l3.23 1.53 24.794 11.92c3.625 1.747 5.825 2.57 7.843 2.625 1.338.035 2.572-.294 3.997-.856l5.372-2.41 78.48-35.738 1.438-.78h.003c.49-.235.897-.506 1.237-.82a2.86 2.86 0 0 0 .297-.266c.157-.153.288-.312.353-.528.325-.55.48-1.162.513-1.84v-.028c0-.03.006-.063.006-.088v-.225c0-.02-.006-.034-.006-.056" fill="#fcb034"/><path d="M590.33 279.456c-1.51 2.903-4.52 5.284-9.04 7.137-4.534 1.87-10.856 3.244-18.97 4.172-8.122.92-18.785 1.388-32 1.388-13.915 0-25.225-.344-33.925-1.04-8.694-.687-15.484-1.797-20.356-3.306-4.878-1.5-8.172-3.597-9.913-6.263-1.74-2.66-2.61-6.084-2.61-10.265 0-4.406.52-11.19 1.566-20.363 1.043-9.143 2.5-19.993 4.353-32.53l2.084-14.784 2.956-21.397 2.957-22.44 2.262-17.403.87-7.128-19.134-1.044c-1.17-2.084-1.972-4.053-2.435-5.912-.475-1.853-.7-4.06-.7-6.616 0-7.416 3.425-12.584 10.253-15.48 6.85-2.903 18.278-4.356 34.282-4.356 7.2 0 12.878.356 17.056 1.05 4.172.693 7.356 1.628 9.572 2.784 2.193 1.162 3.653 2.606 4.343 4.344.69 1.747 1.047 3.65 1.047 5.743a76.94 76.94 0 0 1-.356 7.485c-.228 2.428-.578 5.047-1.037 7.828l-16.004 125.966h72.716c1.625 3.243 2.44 7.193 2.44 11.812 0 4.178-.757 7.722-2.266 10.622m144.394-8.7c-15.19 15.19-36.816 22.797-64.885 22.797-19.946 0-35.903-4.76-47.85-14.272-11.937-9.51-17.912-25.272-17.912-47.322 0-12.76 1.916-24.466 5.74-35.134 3.825-10.678 9.4-19.716 16.7-27.147 7.315-7.416 16.234-13.222 26.793-17.4s22.56-6.256 36.016-6.256c12.525 0 23.137 1.503 31.834 4.515 8.707 3 15.775 7.253 21.228 12.703s9.335 12.003 11.654 19.66c2.312 7.656 3.484 16.125 3.484 25.4 0 26.437-7.6 47.268-22.803 62.456m-29.572-83.85c-3.36-4.997-9.563-7.488-18.613-7.488-5.34 0-10.034 1.275-14.087 3.832-4.063 2.56-7.48 6.084-10.266 10.612-2.78 4.513-4.93 9.863-6.434 15.997-1.513 6.156-2.266 12.822-2.266 20.02 0 10.434 1.685 18.094 5.04 22.953 3.366 4.88 9.344 7.31 17.922 7.31 9.744 0 17.803-4.34 24.2-13.047 6.372-8.693 9.56-21.056 9.56-37.06 0-10.428-1.685-18.144-5.047-23.128m165.98 101.653c3.594 3.09 9.675 4.644 18.263 4.644 33.165 0 49.762-7.8 49.762-23.43 0-5.035-1.86-8.954-5.572-11.72-2.087.475-4.243.812-6.434 1.044-2.203.237-4.116.356-5.74.356-3.718 0-5.562-1.513-5.562-4.55a79.21 79.21 0 0 1 .512-9.056c.35-3.025.753-6.05 1.222-9.088l11.135-83.06c-3.022-2.34-7.013-4.078-12.007-5.247-4.993-1.16-9.915-1.744-14.793-1.744-4.4 0-8.05.416-10.957 1.228-2.903.822-5.34 2.272-7.312 4.36-1.966 2.103-3.475 4.884-4.52 8.378-1.037 3.48-1.9 8.03-2.597 13.61l-9.412 69.81c-3.244 5.36-7.297 9.257-12.166 11.7-4.875 2.435-9.737 3.66-14.62 3.66-4.643 0-7.997-.697-10.093-2.103-2.082-1.39-3.13-3.835-3.13-7.316 0-3.025.35-7.1 1.047-12.216a287.95 287.95 0 0 1 2.438-15.018l8.694-54.45c1.156-7.203.056-12.507-3.304-15.875-3.37-3.375-10.85-5.066-22.446-5.066-15.544 0-26.85 1.563-33.925 4.694-7.082 3.13-10.613 8.525-10.613 16.184 0 2.32.228 4.513.694 6.6.462 2.1 1.394 4.065 2.78 5.915l16.01-.35-8.696 47.32c-1.632 8.125-2.68 14.334-3.135 18.63-.46 4.28-.697 8.86-.697 13.728 0 11.375 3.316 19.663 9.916 24.878 6.62 5.22 16.187 7.844 28.703 7.844 14.625 0 25.984-2.362 34.116-7.07 8.106-4.71 14.722-11.653 19.822-20.834l-1.038 6.88c-1.166 8.04.053 13.62 3.653 16.72m143.703-208.662c-4.53-1.157-9.218-1.732-14.097-1.732-8.81 0-15.253 1.794-19.306 5.39-4.06 3.603-6.8 10.85-8.184 21.747l-19.485 148.234c-1.387 9.5-2.084 16.12-2.084 19.825 0 13.003 7.42 19.5 22.275 19.5 3.703 0 7.94-.2 12.694-.537s8.756-1.097 12.003-2.27l12.18-94.23c3.935-5.585 8.356-9.66 13.225-12.222 4.878-2.547 9.972-3.838 15.306-3.838 6.04 0 9.913 1.116 11.657 3.316a11.83 11.83 0 0 1 2.618 7.506c0 .925-.237 2.866-.7 5.76l-1.743 10.287-2.26 12.397-2.437 12.378-2.088 10.48-1.222 6.288c-.7 3.728-1.27 7.622-1.728 11.7-.472 4.07-.7 8.08-.7 12.05 0 7.44 2.428 12.907 7.313 16.388 4.865 3.497 11.01 5.247 18.428 5.247 16.937 0 29.46-1.87 37.587-5.572 8.122-3.706 12.175-9.63 12.175-17.747 0-5.1-1.86-9.04-5.57-11.825-2.082.456-4.235.813-6.435 1.044-2.203.237-4.122.347-5.734.347-3.716 0-5.57-1.272-5.57-3.835 0-3.006.228-6.14.697-9.387l1.39-9.394c.696-4.187 1.553-8.637 2.606-13.4 1.044-4.753 2.025-9.68 2.96-14.787.913-5.107 1.678-10.147 2.263-15.135.572-4.984.862-9.57.862-13.75 0-11.134-3.125-19.534-9.394-25.23-6.256-5.678-16.462-8.52-30.618-8.52-6.735 0-12.575.516-17.578 1.54-4.98 1.04-9.332 2.54-13.044 4.487-3.713 1.953-7.016 4.428-9.903 7.407-2.92 2.993-5.753 6.315-8.525 9.98l11.468-84.67c-3.015-2.316-6.78-4.047-11.303-5.212m190.5 39.856c-5.106 4.747-12.18 7.13-21.222 7.13-6.503 0-12.2-1.45-17.056-4.353-4.875-2.9-7.3-8.638-7.3-17.228 0-7.422 2.606-13.68 7.822-18.785 5.225-5.11 12.47-7.656 21.753-7.656 8.12 0 14.088 2.09 17.92 6.256 3.83 4.182 5.73 9.522 5.73 16 0 7.656-2.54 13.87-7.647 18.625M1195.6 287.11c-7.666 3.83-19.963 5.753-36.888 5.753-8.587 0-15.26-1.75-20.012-5.215-4.763-3.497-7.138-8.944-7.138-16.37 0-3 .232-6.656.707-10.963l1.384-12.003 11.84-67.85-16.022.35c-1.385-1.85-2.3-3.825-2.775-5.915-.475-2.097-.697-4.29-.697-6.6 0-7.66 3.544-13.053 10.616-16.184s18.375-4.694 33.93-4.694c5.8 0 10.472.403 14.08 1.22 3.594.815 6.316 2.087 8.175 3.822 1.863 1.74 3.02 3.95 3.49 6.618.453 2.666.453 5.732 0 9.22l-8 54.278c-1.162 8.128-2.256 14.847-3.31 20.182-1.044 5.334-1.553 9.168-1.553 11.487 0 1.156.334 2.256 1.03 3.294.706 1.053 2.097 1.57 4.178 1.57 1.62 0 3.644-.113 6.088-.34a56.39 56.39 0 0 0 6.784-1.044c3.713 2.785 5.563 6.616 5.563 11.478 0 8.125-3.82 14.09-11.466 17.92" fill="#fff"/></svg>