<svg width="132" height="132" viewBox="0 0 132 132" fill="none" xmlns="http://www.w3.org/2000/svg">
<path d="M131 93.7292C131 94.0881 130.808 94.4203 130.496 94.5983L66.4961 131.146C65.8296 131.527 65.0003 131.045 65 130.278L65 105.087C65 104.728 65.1925 104.397 65.5039 104.218L108.436 79.6676C108.747 79.4896 108.939 79.1589 108.939 78.8005L108.939 29.7087C108.939 29.3493 109.132 29.0174 109.444 28.8395L129.505 17.4147C130.172 17.0351 131 17.5167 131 18.2839L131 93.7292ZM110.939 30.2897L110.939 78.8005C110.939 79.8091 110.432 80.7452 109.6 81.2985L109.428 81.404L67 105.667L67 128.554L129 93.1491L129 20.0036L110.939 30.2897Z" fill="black"/>
<path d="M67 130.277C67 131.045 66.1706 131.527 65.5039 131.146L1.50391 94.5983C1.1922 94.4203 1 94.0881 1 93.7292L1.00001 18.2848C1.00001 17.5177 1.82847 17.036 2.49512 17.4157L22.5557 28.8395C22.868 29.0174 23.0606 29.3493 23.0606 29.7086L23.0605 78.8004C23.0607 79.1589 23.2533 79.4896 23.5645 79.6676L66.4961 104.218C66.8075 104.396 67 104.728 67 105.087L67 130.277ZM22.5723 81.404C21.6381 80.8698 21.0607 79.8765 21.0605 78.8004L21.0606 30.2897L3.00001 20.0045L3 93.1491L65 128.554L65 105.667L22.5723 81.404Z" fill="black"/>
</svg>
